<svg width="433" height="510" viewBox="0 0 433 510" fill="none" xmlns="http://www.w3.org/2000/svg">
<rect width="81.8804" height="14.5318" transform="matrix(0.960323 -0.27889 0.533711 0.845667 273.003 22.8354)" fill="#7F8CFF"/>
<path d="M422.666 49.8484C416.479 43.1677 407.794 37.4672 397.312 33.2085C386.83 28.9497 374.848 26.2524 362.334 25.3349C349.82 24.4175 337.127 25.3057 325.282 27.9276C313.437 30.5495 302.774 34.8314 294.156 40.4266C285.537 46.0219 279.206 52.7732 275.674 60.1339C272.143 67.4946 271.51 75.2577 273.827 82.7949C276.145 90.332 281.348 97.4312 289.014 103.518C296.68 109.604 306.595 114.507 317.955 117.828L332.919 98.89C326.447 96.9976 320.798 94.2046 316.431 90.7371C312.063 87.2697 309.099 83.2253 307.779 78.9314C306.459 74.6375 306.819 70.2148 308.831 66.0215C310.843 61.8281 314.45 57.9819 319.36 54.7943C324.27 51.6067 330.345 49.1673 337.093 47.6736C343.841 46.1799 351.072 45.6739 358.201 46.1966C365.33 46.7192 372.157 48.2559 378.128 50.6821C384.099 53.1083 389.048 56.3559 392.572 60.1618L422.666 49.8484Z" fill="white"/>
<path d="M24.0455 27.7144C24.0455 32.2187 18.6627 35.87 12.0227 35.87C5.38277 35.87 0 32.2187 0 27.7144C0 23.2102 5.38277 13.8806 12.0227 13.8806C18.6627 13.8806 24.0455 23.2102 24.0455 27.7144Z" fill="#7F8CFF"/>
<rect width="78.3465" height="12.6121" transform="matrix(0.892149 0.451741 0.740057 -0.672544 189.775 462.252)" fill="#7F8CFF"/>
<ellipse cx="14.8276" cy="15.5999" rx="14.8276" ry="15.5999" transform="matrix(0.788962 0.614443 -0.860946 0.508696 191.411 475.907)" fill="white"/>
</svg>
